<?xml version="1.0" encoding="utf-8"?>
<!-- Generator: Adobe Illustrator 24.3.0, SVG Export Plug-In . SVG Version: 6.00 Build 0)  -->
<svg version="1.1" id="圖層_1" xmlns="http://www.w3.org/2000/svg" xmlns:xlink="http://www.w3.org/1999/xlink" x="0px" y="0px"
	 viewBox="0 0 800 800" style="enable-background:new 0 0 800 800;" xml:space="preserve">
<style type="text/css">
	.st0{fill:none;stroke:#FFFFFF;stroke-width:30;stroke-miterlimit:10;}
</style>
<g id="Page-1">
	<g id="icon" transform="translate(42.666667, 64.000000)">
		<path id="Combined-Shape" class="st0" d="M457.3,36c0,0,0.5,0.9,1.6,2.6l0.5,0.8c1.2,1.8,2.8,4.4,4.9,7.8l1,1.6
			c2.2,3.6,4.9,7.9,8.1,13l1.5,2.4c3.3,5.3,7.1,11.4,11.4,18.2l2,3.2c4.4,7,9.3,14.8,14.6,23.4l2.5,4c4.5,7.2,9.3,14.8,14.4,23
			h170.8v466.7H24V136h170.8l62.5-100H457.3L457.3,36z M357.3,169.3C256,169.3,174,251.4,174,352.6S256.1,536,357.3,536
			s183.3-82.1,183.3-183.3S458.6,169.3,357.3,169.3z M357.3,236c64.4,0,116.7,52.2,116.7,116.7s-52.2,116.7-116.7,116.7
			s-116.7-52.2-116.7-116.7S292.9,236,357.3,236z M624,202.7c-18.4,0-33.3,14.9-33.3,33.3s14.9,33.3,33.3,33.3s33.3-14.9,33.3-33.3
			S642.4,202.7,624,202.7z"/>
	</g>
</g>
</svg>
