<svg xmlns="http://www.w3.org/2000/svg" viewBox="0 0 518.57 388.99"><defs><style>.cls-1{fill:#ffe600;}</style></defs><g id="圖層_2" data-name="圖層 2"><path class="cls-1" d="M1164.87,560.08a10.57,10.57,0,0,1-7.91-3.7,10.05,10.05,0,0,1-2.3-8.22l1.93-12.62a25.33,25.33,0,0,0-7.68-22.28l-9.31-8.75A10.33,10.33,0,0,1,1145,486.8l12.6-2.06a25.32,25.32,0,0,0,18.81-14.19l5.45-11.55a10.32,10.32,0,0,1,18.51-.33l5.85,11.34a25.34,25.34,0,0,0,19.31,13.51l12.67,1.61a10.32,10.32,0,0,1,6,17.5l-9,9.08a25.29,25.29,0,0,0-6.88,22.54l2.38,12.54a10.07,10.07,0,0,1-2.12,8.45,10.55,10.55,0,0,1-8,3.84,10.23,10.23,0,0,1-4.65-1.14l-11.41-5.74a25.33,25.33,0,0,0-23.56.42l-11.19,6.15A10.25,10.25,0,0,1,1164.87,560.08Z" transform="translate(-736.18 -311.91)"/><path d="M1191.22,460.58a2.6,2.6,0,0,1,2.49,1.53l5.86,11.34a32.81,32.81,0,0,0,25,17.51l12.67,1.61a2.83,2.83,0,0,1,1.65,4.79l-9,9.07a32.81,32.81,0,0,0-8.91,29.22l2.38,12.54a2.55,2.55,0,0,1-.53,2.27,3,3,0,0,1-2.23,1.12,2.82,2.82,0,0,1-1.28-.34L1208,545.5a32.82,32.82,0,0,0-30.54.55l-11.19,6.14a2.82,2.82,0,0,1-1.35.39,3.06,3.06,0,0,1-2.22-1.08,2.57,2.57,0,0,1-.58-2.21l1.93-12.62a32.81,32.81,0,0,0-10-28.88l-9.3-8.75a2.83,2.83,0,0,1,1.48-4.84l12.6-2.06a32.81,32.81,0,0,0,24.39-18.4l5.44-11.54a2.64,2.64,0,0,1,2.57-1.62h0m0-15a17.63,17.63,0,0,0-16.13,10.22l-5.44,11.55a17.84,17.84,0,0,1-13.24,10l-12.6,2.06a17.82,17.82,0,0,0-9.33,30.57l9.3,8.75a17.82,17.82,0,0,1,5.4,15.68L1147.24,547a17.77,17.77,0,0,0,26.19,18.32l11.2-6.14a17.81,17.81,0,0,1,16.58-.3l11.41,5.74a17.78,17.78,0,0,0,25.52-19.25l-2.39-12.54A17.84,17.84,0,0,1,1240.6,517l9-9.07a17.83,17.83,0,0,0-10.42-30.22l-12.67-1.61a17.81,17.81,0,0,1-13.59-9.51L1207,455.23a17.6,17.6,0,0,0-15.83-9.65Z" transform="translate(-736.18 -311.91)"/><path class="cls-1" d="M1119.2,407.2a6.8,6.8,0,0,1-5.1-2.46,7.7,7.7,0,0,1-1.74-6.29l1.55-10.63a23,23,0,0,0-6.55-19.66l-7.52-7.38a7.86,7.86,0,0,1-1.92-8,7,7,0,0,1,5.45-5l10.18-1.73a21.93,21.93,0,0,0,16.27-12.71l4.39-9.73a6.65,6.65,0,0,1,12.27-.22l4.73,9.56a22,22,0,0,0,16.72,12.13l10.23,1.36a7,7,0,0,1,5.63,4.78,7.9,7.9,0,0,1-1.64,8.1L1174.9,367a23,23,0,0,0-5.84,19.88L1171,397.4a7.67,7.67,0,0,1-1.61,6.45,6.82,6.82,0,0,1-5.13,2.54,6.36,6.36,0,0,1-3-.78l-9.22-4.84a21.35,21.35,0,0,0-20.61.37l-9,5.17A6.42,6.42,0,0,1,1119.2,407.2Z" transform="translate(-736.18 -311.91)"/><path d="M1140.43,328.06l4.06,8.21a29.41,29.41,0,0,0,22.45,16.23l9.81,1.31a.94.94,0,0,1,0,.27l-.06.06-7.25,7.65a30.47,30.47,0,0,0-7.77,26.39l1.85,10.16-8-4.21a28.85,28.85,0,0,0-27.82.5l-7.86,4.5,1.49-10.23a30.44,30.44,0,0,0-8.71-26.09l-7.52-7.38,0-.05a.66.66,0,0,1,0-.28l9.75-1.66a29.44,29.44,0,0,0,21.86-17l3.77-8.35m0-16.15a14.16,14.16,0,0,0-13,8.6l-4.4,9.73a14.42,14.42,0,0,1-10.69,8.41l-10.18,1.73c-11.77,2-16.22,17.22-7.52,25.76l7.52,7.37a15.43,15.43,0,0,1,4.38,13.22l-1.55,10.64c-1.41,9.64,6,17.33,14.26,17.33a13.87,13.87,0,0,0,6.91-1.88l9-5.17a13.86,13.86,0,0,1,13.4-.24l9.22,4.84a13.86,13.86,0,0,0,6.49,1.64c8.49,0,15.9-8.07,14.11-17.84l-1.93-10.57a15.43,15.43,0,0,1,3.9-13.37l7.25-7.64c8.39-8.84,3.41-23.89-8.43-25.47l-10.24-1.36a14.49,14.49,0,0,1-11-8l-4.73-9.57a14.2,14.2,0,0,0-12.81-8.14Z" transform="translate(-736.18 -311.91)"/></g><g id="圖層_1" data-name="圖層 1"><path class="cls-1" d="M835.82,693.4a42.12,42.12,0,0,1-31.92-14.84,41,41,0,0,1-9.4-33.38l5.34-34.89a56.76,56.76,0,0,0-17.23-50l-25.72-24.19a41.78,41.78,0,0,1,21.88-71.67l34.84-5.71a56.76,56.76,0,0,0,42.19-31.82L870.85,395a41.79,41.79,0,0,1,74.93-1.34L962,425a56.78,56.78,0,0,0,43.3,30.29l35,4.45a41.78,41.78,0,0,1,24.43,70.84l-24.84,25.09a56.78,56.78,0,0,0-15.42,50.55l6.59,34.68a40.91,40.91,0,0,1-8.68,34.28A42.56,42.56,0,0,1,990,690.64a41.54,41.54,0,0,1-18.81-4.57L939.69,670.2a56.83,56.83,0,0,0-52.84.95l-31,17A41.37,41.37,0,0,1,835.82,693.4Z" transform="translate(-736.18 -311.91)"/><path d="M908.68,363.54v15a33.68,33.68,0,0,1,30.43,18.56l16.19,31.37a64.3,64.3,0,0,0,49,34.3l35,4.45a34.28,34.28,0,0,1,20.05,58.12l-24.84,25.1a64.29,64.29,0,0,0-17.46,57.22l6.59,34.68a33.52,33.52,0,0,1-7.09,28.1,35,35,0,0,1-26.55,12.7,34.16,34.16,0,0,1-15.45-3.77L943.06,663.5a64.31,64.31,0,0,0-59.82,1.08l-31,17a33.92,33.92,0,0,1-16.47,4.34,35.1,35.1,0,0,1-26.23-12.23,33.54,33.54,0,0,1-7.68-27.35l5.34-34.9a64.27,64.27,0,0,0-19.5-56.56L762,530.67a34.27,34.27,0,0,1,18-58.8l34.84-5.71a64.24,64.24,0,0,0,47.76-36l15.06-31.94a33.57,33.57,0,0,1,31-19.66v-15m0,0a48.75,48.75,0,0,0-44.6,28.26L849,423.74a49.28,49.28,0,0,1-36.61,27.62l-34.85,5.7c-40.31,6.6-55.56,56.56-25.8,84.54l25.72,24.19a49.29,49.29,0,0,1,15,43.36l-5.35,34.9c-4.84,31.63,20.37,56.85,48.74,56.85a49,49,0,0,0,23.69-6.19l31-17a49.31,49.31,0,0,1,45.86-.83l31.54,15.87a49.11,49.11,0,0,0,22.19,5.37c29.06,0,54.47-26.53,48.38-58.6l-6.6-34.68A49.31,49.31,0,0,1,1045.22,561l24.84-25.09c28.73-29,11.71-78.42-28.82-83.56l-35-4.45a49.32,49.32,0,0,1-37.59-26.29l-16.19-31.38a48.64,48.64,0,0,0-43.77-26.68Z" transform="translate(-736.18 -311.91)"/></g></svg>